PathFileType	4	(X/Y/Z)	C:\Users\Basilio\Documents\Thesis Gigler\squatting_fais\c3dfiles\041\SJ_pre4\markers_experimental.trc
DataRate	CameraRate	NumFrames	NumMarkers	Units	OrigDataRate	OrigDataStartFrame	OrigNumFrames
200.000000	200.000000	4	62	mm	200.000000	0	1785
Frame#	Time	FHD			LBHD			RBHD			C7			T10			CLAV			LSHO			LUUPA			LMUPA			LDUPA			LLEP			LMEP			LRAD			LUL			LRFIN			RSHO			RUPA1			RMUPA			RDUPA			RLEP			RMEP			RRAD			RUL			RUFIN			LASI			RASI			USACR			LSACR			RSACR			LTHI1			LTHI2			LTHI3			LTHI4			LLFC			LMFC			LTIB1			LTIB2			LTIB3			LTIB4			LLMAL			LMMAL			LHEE			LMT1			LMT2			LMT5			RTHI			RTHI2			RTHI3			RTHI4			RLFC			RMFC			RTIB1			RTIB2			RTIB3			RTIB4			RLMAL			RMMAL			RHEE			RMT1			RMT2			RMT5			*61			
		X1	Y1	Z1	X2	Y2	Z2	X3	Y3	Z3	X4	Y4	Z4	X5	Y5	Z5	X6	Y6	Z6	X7	Y7	Z7	X8	Y8	Z8	X9	Y9	Z9	X10	Y10	Z10	X11	Y11	Z11	X12	Y12	Z12	X13	Y13	Z13	X14	Y14	Z14	X15	Y15	Z15	X16	Y16	Z16	X17	Y17	Z17	X18	Y18	Z18	X19	Y19	Z19	X20	Y20	Z20	X21	Y21	Z21	X22	Y22	Z22	X23	Y23	Z23	X24	Y24	Z24	X25	Y25	Z25	X26	Y26	Z26	X27	Y27	Z27	X28	Y28	Z28	X29	Y29	Z29	X30	Y30	Z30	X31	Y31	Z31	X32	Y32	Z32	X33	Y33	Z33	X34	Y34	Z34	X35	Y35	Z35	X36	Y36	Z36	X37	Y37	Z37	X38	Y38	Z38	X39	Y39	Z39	X40	Y40	Z40	X41	Y41	Z41	X42	Y42	Z42	X43	Y43	Z43	X44	Y44	Z44	X45	Y45	Z45	X46	Y46	Z46	X47	Y47	Z47	X48	Y48	Z48	X49	Y49	Z49	X50	Y50	Z50	X51	Y51	Z51	X52	Y52	Z52	X53	Y53	Z53	X54	Y54	Z54	X55	Y55	Z55	X56	Y56	Z56	X57	Y57	Z57	X58	Y58	Z58	X59	Y59	Z59	X60	Y60	Z60	X61	Y61	Z61	X62	Y62	Z62	

1	0	-119.031723022461	1641.133422851563	-1067.939208984375	-302.6042785644532	1666.032470703125	-1150.134521484375	-284.9885559082032	1684.90380859375	-997.623718261719	-411.7087707519532	1524.8837890625	-1066.63232421875	-467.2825927734376	1208.99853515625	-1018.580932617188	-268.5030212402344	1444.10302734375	-1050.191284179688	-341.7528991699219	1486.842407226563	-1228.076171875	-407.1773681640626	1344.39794921875	-1354.915649414063	-387.6849670410157	1298.766479492188	-1348.713989257813	-431.3803100585939	1289.578247070313	-1390.31982421875	-445.9090576171876	1241.118286132813	-1409.0302734375	-504.2314453125001	1212.2080078125	-1344.013549804688	-362.7952880859376	1076.66796875	-1215.191528320313	-342.7769775390626	1029.005737304688	-1268.542114257813	-314.5738525390626	1065.031005859375	-1172.530883789063	-345.2689819335938	1528.575561523438	-894.5095825195315	-443.4712524414064	1404.253662109375	-732.7900390625001	-401.9712829589845	1375.200073242188	-727.8833007812501	-435.0903930664064	1348.549926757813	-688.7739868164064	-435.6572265625001	1303.215942382813	-665.7874755859376	-501.2325439453126	1272.361206054688	-726.1055908203126	-410.9261169433595	1076.57421875	-787.0571289062502	-365.1949462890626	1068.223266601563	-828.2390136718752	-374.9559631347657	1049.6123046875	-725.2857666015626	-282.1181335449219	1014.707580566406	-1098.262329101563	-317.8848266601563	1010.255187988281	-882.2502441406252	-474.7781066894532	1095.099731445313	-1013.242492675781	-485.8868408203126	1069.793212890625	-1042.45849609375	-497.384490966797	1069.750366210938	-988.976257324219	-396.5631713867189	825.8533325195315	-1199.932861328125	-364.4382629394532	747.4407958984376	-1196.938110351563	-318.0019531250001	748.6500244140626	-1180.519897460938	-396.0625000000001	695.0232543945314	-1192.847534179688	-387.8896484375001	513.6264038085939	-1188.829467773438	-392.1611328125001	485.4641418457032	-1072.241821289063	-363.8054809570313	318.2376098632813	-1147.040405273438	-404.6837768554689	280.5657348632813	-1217.989868164063	-371.3080749511719	274.2373352050782	-1188.55810546875	-374.6864318847657	194.3446197509766	-1162.63134765625	-431.0276489257814	100.4597778320313	-1211.941528320313	-393.6782531738282	103.1805114746094	-1129.489135742188	-487.3896484375001	52.053524017334	-1179.140747070313	-270.3377380371094	60.53767013549806	-1150.760375976563	-264.7758483886719	58.99333572387697	-1195.393798828125	-303.5841064453126	33.61632919311524	-1251.827880859375	-439.8956909179689	768.8945922851565	-796.3436279296877	-399.5756835937501	718.0893554687501	-780.4409179687502	-366.4419555664063	720.7068481445314	-781.618591308594	-421.5708312988282	636.1129760742189	-785.9958496093752	-410.5254516601564	511.9929199218751	-762.5488281250001	-380.1109924316407	474.3904113769532	-872.6928710937502	-375.5662536621094	345.7405395507813	-737.7908935546876	-459.6075744628907	273.0715332031251	-718.6671752929689	-413.0755310058595	270.6702270507813	-713.4804077148439	-388.174530029297	218.6720581054688	-729.8552246093751	-442.9429016113282	100.6402587890625	-699.4170532226564	-407.6469726562501	106.9176788330078	-778.3623046875002	-495.1381225585939	51.00978469848634	-748.5463256835939	-278.1908874511719	55.00765609741212	-742.5559082031251	-278.7782897949219	61.83690261840822	-690.5621948242189	-324.0671691894532	40.53032684326173	-645.1840209960939	-4216.569335937501	853.1027832031252	-3944.870117187501	
2	0.005	-119.3778457641602	1641.625732421875	-1066.930419921875	-303.1303405761719	1665.992431640625	-1149.083374023438	-285.3341979980469	1684.929931640625	-996.6199951171877	-411.9144592285157	1524.6953125	-1065.604858398438	-467.1214294433595	1208.768310546875	-1017.858337402344	-268.3320007324219	1444.037231445313	-1049.304565429688	-341.8199157714844	1486.93115234375	-1226.959716796875	-407.1800842285157	1344.552856445313	-1353.995849609375	-387.6673889160157	1298.8837890625	-1347.842895507813	-432.0460205078126	1290.127197265625	-1389.664672851563	-445.8531799316407	1241.281982421875	-1408.199584960938	-504.0901794433595	1212.23583984375	-1343.067993164063	-362.5031738281251	1076.821166992188	-1214.573364257813	-342.4740295410157	1029.173828125	-1268.0263671875	-314.2462768554688	1065.107299804688	-1171.814819335938	-345.4334106445313	1528.341064453125	-893.544616699219	-443.4375915527345	1403.786865234375	-731.8178100585939	-401.8282165527345	1374.954467773438	-726.9801635742189	-435.0501708984376	1348.156127929688	-687.8980712890626	-435.7614746093751	1302.740966796875	-664.6749877929689	-501.219696044922	1272.050537109375	-725.2116088867189	-410.734100341797	1076.213500976563	-786.3453369140627	-365.1960144042969	1067.972778320313	-827.499938964844	-374.6501464843751	1049.338623046875	-724.7225952148439	-281.8186035156251	1014.753967285156	-1097.705322265625	-317.8237915039063	1010.047058105469	-881.6341552734377	-474.275848388672	1094.7001953125	-1012.4736328125	-485.5921630859376	1069.620727539063	-1041.9697265625	-497.190887451172	1069.482299804688	-988.398620605469	-396.1295166015626	825.9238281250002	-1199.557739257813	-364.1065368652344	747.4597167968751	-1196.547607421875	-317.7475280761719	748.5795288085939	-1179.998657226563	-395.8692932128907	695.0898437500001	-1192.54541015625	-387.9483642578126	513.7006835937501	-1188.552368164063	-392.3667602539064	485.389617919922	-1072.008178710938	-363.9187622070313	318.2124938964844	-1146.921997070313	-404.754608154297	280.6434020996094	-1217.897094726563	-371.2576293945313	274.2886047363282	-1188.435180664063	-374.7613830566407	194.3533477783204	-1162.579956054688	-431.0108032226564	100.4772644042969	-1211.947387695313	-393.696502685547	103.1496353149414	-1129.503540039063	-487.404754638672	52.0619468688965	-1179.151977539063	-270.3709106445313	60.50886535644533	-1150.735473632813	-264.8264160156251	59.01489639282228	-1195.435424804688	-303.6037902832032	33.61675643920899	-1251.835693359375	-440.1955566406251	768.2651367187502	-796.2227172851565	-400.1045227050782	717.2733154296876	-780.2632446289065	-367.0169677734376	720.1430664062501	-781.2563476562502	-421.6806640625001	635.5191040039064	-786.0386962890627	-410.9231262207032	511.5178833007814	-762.9476318359376	-380.3256225585938	474.1159057617189	-873.0898437500002	-375.7796936035157	345.2981872558594	-738.4663696289064	-459.9318237304689	272.3775634765626	-719.4937133789064	-413.2449951171876	270.1066284179688	-714.1307983398439	-388.3585510253907	218.0961303710938	-730.6760864257814	-442.9390563964845	100.305778503418	-700.6254882812501	-407.6130981445314	105.8946533203125	-779.2308349609377	-494.8047180175782	50.50508117675783	-749.2999267578126	-277.7844848632813	54.87182235717775	-742.8526000976564	-277.8294677734376	62.64763641357423	-690.7832031250001	-323.9035034179688	41.00943756103516	-645.6601562500001	-4216.569335937501	853.1027832031252	-3944.870117187501	
3	0.01	-119.7299346923828	1642.125366210938	-1065.948974609375	-303.6004333496094	1665.983764648438	-1147.877807617188	-286.0459594726563	1684.950073242188	-995.3784179687502	-412.0801696777345	1524.553100585938	-1064.452026367188	-466.9417419433595	1208.542602539063	-1016.908996582031	-268.8941955566407	1444.189575195313	-1048.424926757813	-341.9652404785157	1486.984741210938	-1225.93603515625	-407.2006835937501	1344.768310546875	-1353.092529296875	-387.6948242187501	1299.067626953125	-1347.005737304688	-432.1390075683595	1290.275390625	-1388.764282226563	-445.744354248047	1241.443969726563	-1407.245971679688	-504.1462402343751	1212.15283203125	-1342.366455078125	-362.1018676757813	1076.89404296875	-1213.825073242188	-342.1225891113282	1029.310791015625	-1267.348999023438	-313.9334106445313	1065.20703125	-1171.1640625	-345.6632080078126	1528.199462890625	-892.3989868164065	-443.2351989746095	1403.464233398438	-730.7954101562501	-401.6482543945314	1374.585083007813	-726.0245361328126	-435.075408935547	1347.702758789063	-686.8452758789064	-435.6480712890626	1302.313598632813	-663.9295654296876	-501.0340576171876	1271.705688476563	-724.2203979492189	-410.8225708007814	1075.885986328125	-785.702087402344	-365.2210083007813	1067.648681640625	-826.6469726562502	-374.7784423828126	1048.746337890625	-723.9263305664064	-281.4333190917969	1014.7294921875	-1097.00439453125	-317.5417785644532	1009.811340332031	-880.9942626953127	-474.0067138671876	1094.50146484375	-1011.902526855469	-485.2950134277345	1069.484619140625	-1041.31494140625	-496.9415283203126	1069.307983398438	-987.7512207031252	-395.6429748535157	825.9812011718752	-1199.184692382813	-363.6964111328126	747.5020751953126	-1196.086303710938	-317.3756103515626	748.4967651367189	-1180.05224609375	-395.4946594238282	695.1414184570314	-1192.06689453125	-387.9519653320314	513.7251586914064	-1188.290283203125	-392.7346191406251	485.390838623047	-1071.692993164063	-363.8981323242188	318.2536926269532	-1146.770263671875	-404.7684326171876	280.8244018554688	-1217.761352539063	-371.2782897949219	274.2598571777344	-1188.2998046875	-374.7508239746094	194.341049194336	-1162.532104492188	-431.0249938964845	100.4930953979492	-1211.954956054688	-393.6711730957032	103.1537322998047	-1129.490112304688	-487.5858459472657	52.4453582763672	-1178.998901367188	-270.2967529296876	60.53943252563478	-1150.78662109375	-264.8315734863282	58.97149658203126	-1195.406372070313	-303.6143493652344	33.6176986694336	-1251.85693359375	-440.6490478515626	767.7405395507814	-796.0559692382815	-400.6641540527345	716.6815185546876	-779.9782714843752	-367.4357910156251	719.6854858398439	-781.0726318359377	-422.656463623047	635.1296997070314	-785.564880371094	-411.3589477539064	510.9894104003907	-763.3781738281251	-380.6135559082032	473.7895507812501	-873.4997558593752	-376.0372009277344	344.7854003906251	-739.0565185546876	-460.1499328613282	271.7680053710938	-720.2746582031251	-413.5061950683595	269.5616455078126	-714.8399047851564	-388.3587646484376	217.6256256103516	-731.4707641601564	-442.8268127441407	100.0689926147461	-701.5046386718751	-407.592498779297	105.1808013916016	-780.0556640625002	-494.731170654297	50.27589416503908	-749.6963500976564	-277.7637634277344	54.95112609863283	-743.2872314453126	-277.7048950195313	62.8937454223633	-691.2584838867189	-323.9752502441407	41.29855346679688	-645.9969482421876	-4216.505371093751	853.1636352539065	-3944.735595703126	
4	0.015	-120.3059234619141	1642.625	-1064.839965820313	-304.2701721191407	1665.985717773438	-1146.768432617188	-286.5858459472657	1685.007690429688	-994.2198486328127	-412.322479248047	1524.4658203125	-1063.332275390625	-466.7418823242189	1208.338256835938	-1016.09423828125	-269.1239013671876	1444.038696289063	-1046.983032226563	-342.0075683593751	1487.037109375	-1224.8359375	-407.2752075195314	1344.929565429688	-1352.120239257813	-387.6805114746095	1299.185424804688	-1346.086669921875	-432.2031860351564	1290.43212890625	-1387.766845703125	-445.6870727539064	1241.638549804688	-1406.416870117188	-503.9412841796876	1212.214111328125	-1341.438720703125	-361.9664916992188	1076.941162109375	-1213.09912109375	-341.7236328125001	1029.463500976563	-1266.582641601563	-313.6241455078126	1065.257568359375	-1170.480834960938	-345.8185119628907	1527.966430664063	-891.2639160156252	-443.314666748047	1402.976318359375	-729.7846069335939	-401.3919677734376	1374.103149414063	-724.8421630859376	-434.9071655273439	1347.40380859375	-685.8455810546876	-435.5257263183595	1301.880493164063	-662.8912353515626	-500.9178466796876	1271.341674804688	-723.1956787109376	-410.6658630371095	1075.557373046875	-784.8570556640627	-365.3201293945313	1067.319091796875	-825.9664306640627	-374.6082153320313	1048.410888671875	-723.1152954101564	-280.6163940429688	1014.4189453125	-1096.124877929688	-317.3112487792969	1009.557312011719	-880.2512817382815	-474.1394653320314	1094.5947265625	-1011.325866699219	-485.0473937988282	1069.369384765625	-1040.527465820313	-496.6839294433595	1069.179077148438	-987.059753417969	-395.1819458007814	826.0424804687502	-1198.673095703125	-363.4746398925782	747.4349975585939	-1195.522705078125	-317.0590515136719	748.4288940429689	-1179.514892578125	-395.3337402343751	695.1757202148439	-1191.676513671875	-387.8999938964845	513.7593383789064	-1188.011352539063	-392.9349365234376	485.3529663085939	-1071.42822265625	-363.8314514160157	318.2602844238282	-1146.602294921875	-405.7880249023439	280.1134948730469	-1217.829711914063	-370.9866943359376	274.7352600097657	-1187.848266601563	-374.7647399902344	194.3459777832032	-1162.4287109375	-431.0061035156251	100.5098342895508	-1211.948486328125	-393.7078552246095	103.1529388427735	-1129.496337890625	-487.5787658691407	52.45718002319337	-1178.99951171875	-270.2753906250001	60.542781829834	-1150.747924804688	-264.7912902832032	58.97424316406251	-1195.368774414063	-303.6231384277344	33.61768341064454	-1251.851806640625	-440.9180908203126	767.2157592773439	-795.9177246093752	-401.0618591308595	716.1591796875001	-779.9528808593752	-367.8632202148438	719.1309204101564	-780.9367675781252	-423.082489013672	634.6318969726564	-785.8303222656252	-411.9188842773439	510.5202941894532	-763.7316284179689	-380.7274169921876	473.5067138671876	-873.9290161132815	-376.3695678710938	344.3684082031251	-739.5380249023439	-460.220184326172	271.0398559570313	-721.0713500976564	-413.6958007812501	268.9749755859376	-715.5266113281251	-388.4264526367189	217.1391601562501	-732.0179443359376	-442.8034973144532	99.89914703369143	-702.1663818359376	-407.5862121582032	104.7813110351563	-780.8633422851565	-494.7541809082032	50.0719337463379	-750.0064086914064	-277.8054504394532	54.84756088256837	-743.7495727539064	-277.9295043945313	62.90669250488283	-691.5643920898439	-324.1237182617188	41.63218307495118	-646.2009277343751	-4216.510742187501	853.1064453125002	-3944.728759765626	
